<?xml version="1.0" encoding="utf-8"?>
<svg version="1.1" xmlns:xlink="http://www.w3.org/1999/xlink" width="12px" height="13px" xmlns="http://www.w3.org/2000/svg">
  <defs>
    <pattern id="BGPattern" patternUnits="userSpaceOnUse" alignment="0 0" imageRepeat="None" />
    <mask fill="white" id="Clip25">
      <path d="M 9.461538461538462 6.826450892857144  C 9.461538461538462 6.889322916666666  9.439903846153847 6.944940476190476  9.396634615384615 6.993303571428572  L 5.704326923076923 10.707589285714286  C 5.65625 10.751116071428571  5.600961538461539 10.772879464285714  5.538461538461538 10.772879464285714  C 5.475961538461539 10.772879464285714  5.4206730769230775 10.751116071428571  5.372596153846153 10.707589285714286  L 3.2956730769230766 8.618303571428571  C 3.2524038461538463 8.569940476190476  3.230769230769231 8.514322916666664  3.230769230769231 8.451450892857144  C 3.230769230769231 8.38857886904762  3.2524038461538463 8.335379464285714  3.2956730769230766 8.291852678571429  L 3.6274038461538463 7.958147321428572  C 3.6706730769230766 7.914620535714286  3.7235576923076925 7.892857142857144  3.7860576923076925 7.892857142857144  C 3.848557692307693 7.892857142857144  3.903846153846154 7.914620535714286  3.9519230769230766 7.958147321428572  L 5.538461538461538 9.554129464285714  L 8.740384615384615 6.333147321428572  C 8.78846153846154 6.289620535714286  8.84375 6.267857142857142  8.90625 6.267857142857142  C 8.96875 6.267857142857142  9.021634615384615 6.289620535714286  9.064903846153847 6.333147321428572  L 9.396634615384615 6.666852678571428  C 9.439903846153847 6.710379464285714  9.461538461538462 6.763578869047619  9.461538461538462 6.826450892857144  Z M 0.9230769230769231 4.642857142857142  L 0.9230769230769231 12  L 11.076923076923077 12  L 11.076923076923077 4.642857142857142  L 0.9230769230769231 4.642857142857142  Z M 3.6274038461538463 3.416852678571428  C 3.6706730769230766 3.3733258928571423  3.6923076923076925 3.317708333333332  3.6923076923076925 3.25  L 3.6923076923076925 1.160714285714286  C 3.6923076923076925 1.0930059523809508  3.6706730769230766 1.0373883928571423  3.6274038461538463 0.9938616071428578  C 3.584134615384616 0.9503348214285718  3.528846153846154 0.9285714285714282  3.4615384615384612 0.9285714285714282  L 3 0.9285714285714282  C 2.9326923076923084 0.9285714285714282  2.8774038461538467 0.9503348214285718  2.8341346153846154 0.9938616071428578  C 2.7908653846153846 1.0373883928571423  2.769230769230769 1.0930059523809508  2.769230769230769 1.160714285714286  L 2.769230769230769 3.25  C 2.769230769230769 3.317708333333332  2.7908653846153846 3.3733258928571423  2.8341346153846154 3.416852678571428  C 2.8774038461538467 3.460379464285714  2.9326923076923084 3.4821428571428577  3 3.4821428571428577  L 3.4615384615384612 3.4821428571428577  C 3.528846153846154 3.4821428571428577  3.584134615384616 3.460379464285714  3.6274038461538463 3.416852678571428  Z M 9.165865384615385 3.416852678571428  C 9.209134615384615 3.3733258928571423  9.230769230769232 3.317708333333332  9.230769230769232 3.25  L 9.230769230769232 1.160714285714286  C 9.230769230769232 1.0930059523809508  9.209134615384615 1.0373883928571423  9.165865384615385 0.9938616071428578  C 9.122596153846153 0.9503348214285718  9.067307692307693 0.9285714285714282  9 0.9285714285714282  L 8.538461538461538 0.9285714285714282  C 8.471153846153847 0.9285714285714282  8.415865384615385 0.9503348214285718  8.372596153846153 0.9938616071428578  C 8.329326923076923 1.0373883928571423  8.307692307692307 1.0930059523809508  8.307692307692307 1.160714285714286  L 8.307692307692307 3.25  C 8.307692307692307 3.317708333333332  8.329326923076923 3.3733258928571423  8.372596153846153 3.416852678571428  C 8.415865384615385 3.460379464285714  8.471153846153847 3.4821428571428577  8.538461538461538 3.4821428571428577  L 9 3.4821428571428577  C 9.067307692307693 3.4821428571428577  9.122596153846153 3.460379464285714  9.165865384615385 3.416852678571428  Z M 11.725961538461538 2.1328125  C 11.908653846153847 2.316592261904762  12 2.5342261904761902  12 2.785714285714286  L 12 12.071428571428571  C 12 12.322916666666668  11.908653846153847 12.540550595238095  11.725961538461538 12.724330357142858  C 11.543269230769232 12.908110119047619  11.326923076923078 13  11.076923076923077 13  L 0.9230769230769231 13  C 0.6730769230769231 13  0.4567307692307693 12.908110119047619  0.2740384615384615 12.724330357142858  C 0.09134615384615384 12.540550595238095  0 12.322916666666668  0 12.071428571428571  L 0 2.785714285714286  C 0 2.5342261904761902  0.09134615384615384 2.316592261904762  0.2740384615384615 2.1328125  C 0.4567307692307693 1.9490327380952366  0.6730769230769231 1.8571428571428577  0.9230769230769231 1.8571428571428577  L 1.8461538461538463 1.8571428571428577  L 1.8461538461538463 1.160714285714286  C 1.8461538461538463 0.8415178571428578  1.9591346153846154 0.5682663690476183  2.1850961538461537 0.34095982142857184  C 2.4110576923076925 0.11365327380952395  2.682692307692308 0  3 0  L 3.4615384615384612 0  C 3.7788461538461537 0  4.05048076923077 0.11365327380952395  4.2764423076923075 0.34095982142857184  C 4.502403846153847 0.5682663690476183  4.615384615384616 0.8415178571428578  4.615384615384616 1.160714285714286  L 4.615384615384616 1.8571428571428577  L 7.384615384615385 1.8571428571428577  L 7.384615384615385 1.160714285714286  C 7.384615384615385 0.8415178571428578  7.497596153846154 0.5682663690476183  7.7235576923076925 0.34095982142857184  C 7.949519230769232 0.11365327380952395  8.221153846153847 0  8.538461538461538 0  L 9 0  C 9.317307692307693 0  9.588942307692308 0.11365327380952395  9.814903846153847 0.34095982142857184  C 10.040865384615387 0.5682663690476183  10.153846153846153 0.8415178571428578  10.153846153846153 1.160714285714286  L 10.153846153846153 1.8571428571428577  L 11.076923076923077 1.8571428571428577  C 11.326923076923078 1.8571428571428577  11.543269230769232 1.9490327380952366  11.725961538461538 2.1328125  Z " fill-rule="evenodd" />
    </mask>
  </defs>
  <g transform="matrix(1 0 0 1 -1096 -1637 )">
    <path d="M 9.461538461538462 6.826450892857144  C 9.461538461538462 6.889322916666666  9.439903846153847 6.944940476190476  9.396634615384615 6.993303571428572  L 5.704326923076923 10.707589285714286  C 5.65625 10.751116071428571  5.600961538461539 10.772879464285714  5.538461538461538 10.772879464285714  C 5.475961538461539 10.772879464285714  5.4206730769230775 10.751116071428571  5.372596153846153 10.707589285714286  L 3.2956730769230766 8.618303571428571  C 3.2524038461538463 8.569940476190476  3.230769230769231 8.514322916666664  3.230769230769231 8.451450892857144  C 3.230769230769231 8.38857886904762  3.2524038461538463 8.335379464285714  3.2956730769230766 8.291852678571429  L 3.6274038461538463 7.958147321428572  C 3.6706730769230766 7.914620535714286  3.7235576923076925 7.892857142857144  3.7860576923076925 7.892857142857144  C 3.848557692307693 7.892857142857144  3.903846153846154 7.914620535714286  3.9519230769230766 7.958147321428572  L 5.538461538461538 9.554129464285714  L 8.740384615384615 6.333147321428572  C 8.78846153846154 6.289620535714286  8.84375 6.267857142857142  8.90625 6.267857142857142  C 8.96875 6.267857142857142  9.021634615384615 6.289620535714286  9.064903846153847 6.333147321428572  L 9.396634615384615 6.666852678571428  C 9.439903846153847 6.710379464285714  9.461538461538462 6.763578869047619  9.461538461538462 6.826450892857144  Z M 0.9230769230769231 4.642857142857142  L 0.9230769230769231 12  L 11.076923076923077 12  L 11.076923076923077 4.642857142857142  L 0.9230769230769231 4.642857142857142  Z M 3.6274038461538463 3.416852678571428  C 3.6706730769230766 3.3733258928571423  3.6923076923076925 3.317708333333332  3.6923076923076925 3.25  L 3.6923076923076925 1.160714285714286  C 3.6923076923076925 1.0930059523809508  3.6706730769230766 1.0373883928571423  3.6274038461538463 0.9938616071428578  C 3.584134615384616 0.9503348214285718  3.528846153846154 0.9285714285714282  3.4615384615384612 0.9285714285714282  L 3 0.9285714285714282  C 2.9326923076923084 0.9285714285714282  2.8774038461538467 0.9503348214285718  2.8341346153846154 0.9938616071428578  C 2.7908653846153846 1.0373883928571423  2.769230769230769 1.0930059523809508  2.769230769230769 1.160714285714286  L 2.769230769230769 3.25  C 2.769230769230769 3.317708333333332  2.7908653846153846 3.3733258928571423  2.8341346153846154 3.416852678571428  C 2.8774038461538467 3.460379464285714  2.9326923076923084 3.4821428571428577  3 3.4821428571428577  L 3.4615384615384612 3.4821428571428577  C 3.528846153846154 3.4821428571428577  3.584134615384616 3.460379464285714  3.6274038461538463 3.416852678571428  Z M 9.165865384615385 3.416852678571428  C 9.209134615384615 3.3733258928571423  9.230769230769232 3.317708333333332  9.230769230769232 3.25  L 9.230769230769232 1.160714285714286  C 9.230769230769232 1.0930059523809508  9.209134615384615 1.0373883928571423  9.165865384615385 0.9938616071428578  C 9.122596153846153 0.9503348214285718  9.067307692307693 0.9285714285714282  9 0.9285714285714282  L 8.538461538461538 0.9285714285714282  C 8.471153846153847 0.9285714285714282  8.415865384615385 0.9503348214285718  8.372596153846153 0.9938616071428578  C 8.329326923076923 1.0373883928571423  8.307692307692307 1.0930059523809508  8.307692307692307 1.160714285714286  L 8.307692307692307 3.25  C 8.307692307692307 3.317708333333332  8.329326923076923 3.3733258928571423  8.372596153846153 3.416852678571428  C 8.415865384615385 3.460379464285714  8.471153846153847 3.4821428571428577  8.538461538461538 3.4821428571428577  L 9 3.4821428571428577  C 9.067307692307693 3.4821428571428577  9.122596153846153 3.460379464285714  9.165865384615385 3.416852678571428  Z M 11.725961538461538 2.1328125  C 11.908653846153847 2.316592261904762  12 2.5342261904761902  12 2.785714285714286  L 12 12.071428571428571  C 12 12.322916666666668  11.908653846153847 12.540550595238095  11.725961538461538 12.724330357142858  C 11.543269230769232 12.908110119047619  11.326923076923078 13  11.076923076923077 13  L 0.9230769230769231 13  C 0.6730769230769231 13  0.4567307692307693 12.908110119047619  0.2740384615384615 12.724330357142858  C 0.09134615384615384 12.540550595238095  0 12.322916666666668  0 12.071428571428571  L 0 2.785714285714286  C 0 2.5342261904761902  0.09134615384615384 2.316592261904762  0.2740384615384615 2.1328125  C 0.4567307692307693 1.9490327380952366  0.6730769230769231 1.8571428571428577  0.9230769230769231 1.8571428571428577  L 1.8461538461538463 1.8571428571428577  L 1.8461538461538463 1.160714285714286  C 1.8461538461538463 0.8415178571428578  1.9591346153846154 0.5682663690476183  2.1850961538461537 0.34095982142857184  C 2.4110576923076925 0.11365327380952395  2.682692307692308 0  3 0  L 3.4615384615384612 0  C 3.7788461538461537 0  4.05048076923077 0.11365327380952395  4.2764423076923075 0.34095982142857184  C 4.502403846153847 0.5682663690476183  4.615384615384616 0.8415178571428578  4.615384615384616 1.160714285714286  L 4.615384615384616 1.8571428571428577  L 7.384615384615385 1.8571428571428577  L 7.384615384615385 1.160714285714286  C 7.384615384615385 0.8415178571428578  7.497596153846154 0.5682663690476183  7.7235576923076925 0.34095982142857184  C 7.949519230769232 0.11365327380952395  8.221153846153847 0  8.538461538461538 0  L 9 0  C 9.317307692307693 0  9.588942307692308 0.11365327380952395  9.814903846153847 0.34095982142857184  C 10.040865384615387 0.5682663690476183  10.153846153846153 0.8415178571428578  10.153846153846153 1.160714285714286  L 10.153846153846153 1.8571428571428577  L 11.076923076923077 1.8571428571428577  C 11.326923076923078 1.8571428571428577  11.543269230769232 1.9490327380952366  11.725961538461538 2.1328125  Z " fill-rule="nonzero" fill="rgba(0, 0, 0, 1)" stroke="none" transform="matrix(1 0 0 1 1096 1637 )" class="fill" />
    <path d="M 9.461538461538462 6.826450892857144  C 9.461538461538462 6.889322916666666  9.439903846153847 6.944940476190476  9.396634615384615 6.993303571428572  L 5.704326923076923 10.707589285714286  C 5.65625 10.751116071428571  5.600961538461539 10.772879464285714  5.538461538461538 10.772879464285714  C 5.475961538461539 10.772879464285714  5.4206730769230775 10.751116071428571  5.372596153846153 10.707589285714286  L 3.2956730769230766 8.618303571428571  C 3.2524038461538463 8.569940476190476  3.230769230769231 8.514322916666664  3.230769230769231 8.451450892857144  C 3.230769230769231 8.38857886904762  3.2524038461538463 8.335379464285714  3.2956730769230766 8.291852678571429  L 3.6274038461538463 7.958147321428572  C 3.6706730769230766 7.914620535714286  3.7235576923076925 7.892857142857144  3.7860576923076925 7.892857142857144  C 3.848557692307693 7.892857142857144  3.903846153846154 7.914620535714286  3.9519230769230766 7.958147321428572  L 5.538461538461538 9.554129464285714  L 8.740384615384615 6.333147321428572  C 8.78846153846154 6.289620535714286  8.84375 6.267857142857142  8.90625 6.267857142857142  C 8.96875 6.267857142857142  9.021634615384615 6.289620535714286  9.064903846153847 6.333147321428572  L 9.396634615384615 6.666852678571428  C 9.439903846153847 6.710379464285714  9.461538461538462 6.763578869047619  9.461538461538462 6.826450892857144  Z " stroke-width="0" stroke-dasharray="0" stroke="rgba(255, 255, 255, 0)" fill="none" transform="matrix(1 0 0 1 1096 1637 )" class="stroke" mask="url(#Clip25)" />
    <path d="M 0.9230769230769231 4.642857142857142  L 0.9230769230769231 12  L 11.076923076923077 12  L 11.076923076923077 4.642857142857142  L 0.9230769230769231 4.642857142857142  Z " stroke-width="0" stroke-dasharray="0" stroke="rgba(255, 255, 255, 0)" fill="none" transform="matrix(1 0 0 1 1096 1637 )" class="stroke" mask="url(#Clip25)" />
    <path d="M 3.6274038461538463 3.416852678571428  C 3.6706730769230766 3.3733258928571423  3.6923076923076925 3.317708333333332  3.6923076923076925 3.25  L 3.6923076923076925 1.160714285714286  C 3.6923076923076925 1.0930059523809508  3.6706730769230766 1.0373883928571423  3.6274038461538463 0.9938616071428578  C 3.584134615384616 0.9503348214285718  3.528846153846154 0.9285714285714282  3.4615384615384612 0.9285714285714282  L 3 0.9285714285714282  C 2.9326923076923084 0.9285714285714282  2.8774038461538467 0.9503348214285718  2.8341346153846154 0.9938616071428578  C 2.7908653846153846 1.0373883928571423  2.769230769230769 1.0930059523809508  2.769230769230769 1.160714285714286  L 2.769230769230769 3.25  C 2.769230769230769 3.317708333333332  2.7908653846153846 3.3733258928571423  2.8341346153846154 3.416852678571428  C 2.8774038461538467 3.460379464285714  2.9326923076923084 3.4821428571428577  3 3.4821428571428577  L 3.4615384615384612 3.4821428571428577  C 3.528846153846154 3.4821428571428577  3.584134615384616 3.460379464285714  3.6274038461538463 3.416852678571428  Z " stroke-width="0" stroke-dasharray="0" stroke="rgba(255, 255, 255, 0)" fill="none" transform="matrix(1 0 0 1 1096 1637 )" class="stroke" mask="url(#Clip25)" />
    <path d="M 9.165865384615385 3.416852678571428  C 9.209134615384615 3.3733258928571423  9.230769230769232 3.317708333333332  9.230769230769232 3.25  L 9.230769230769232 1.160714285714286  C 9.230769230769232 1.0930059523809508  9.209134615384615 1.0373883928571423  9.165865384615385 0.9938616071428578  C 9.122596153846153 0.9503348214285718  9.067307692307693 0.9285714285714282  9 0.9285714285714282  L 8.538461538461538 0.9285714285714282  C 8.471153846153847 0.9285714285714282  8.415865384615385 0.9503348214285718  8.372596153846153 0.9938616071428578  C 8.329326923076923 1.0373883928571423  8.307692307692307 1.0930059523809508  8.307692307692307 1.160714285714286  L 8.307692307692307 3.25  C 8.307692307692307 3.317708333333332  8.329326923076923 3.3733258928571423  8.372596153846153 3.416852678571428  C 8.415865384615385 3.460379464285714  8.471153846153847 3.4821428571428577  8.538461538461538 3.4821428571428577  L 9 3.4821428571428577  C 9.067307692307693 3.4821428571428577  9.122596153846153 3.460379464285714  9.165865384615385 3.416852678571428  Z " stroke-width="0" stroke-dasharray="0" stroke="rgba(255, 255, 255, 0)" fill="none" transform="matrix(1 0 0 1 1096 1637 )" class="stroke" mask="url(#Clip25)" />
    <path d="M 11.725961538461538 2.1328125  C 11.908653846153847 2.316592261904762  12 2.5342261904761902  12 2.785714285714286  L 12 12.071428571428571  C 12 12.322916666666668  11.908653846153847 12.540550595238095  11.725961538461538 12.724330357142858  C 11.543269230769232 12.908110119047619  11.326923076923078 13  11.076923076923077 13  L 0.9230769230769231 13  C 0.6730769230769231 13  0.4567307692307693 12.908110119047619  0.2740384615384615 12.724330357142858  C 0.09134615384615384 12.540550595238095  0 12.322916666666668  0 12.071428571428571  L 0 2.785714285714286  C 0 2.5342261904761902  0.09134615384615384 2.316592261904762  0.2740384615384615 2.1328125  C 0.4567307692307693 1.9490327380952366  0.6730769230769231 1.8571428571428577  0.9230769230769231 1.8571428571428577  L 1.8461538461538463 1.8571428571428577  L 1.8461538461538463 1.160714285714286  C 1.8461538461538463 0.8415178571428578  1.9591346153846154 0.5682663690476183  2.1850961538461537 0.34095982142857184  C 2.4110576923076925 0.11365327380952395  2.682692307692308 0  3 0  L 3.4615384615384612 0  C 3.7788461538461537 0  4.05048076923077 0.11365327380952395  4.2764423076923075 0.34095982142857184  C 4.502403846153847 0.5682663690476183  4.615384615384616 0.8415178571428578  4.615384615384616 1.160714285714286  L 4.615384615384616 1.8571428571428577  L 7.384615384615385 1.8571428571428577  L 7.384615384615385 1.160714285714286  C 7.384615384615385 0.8415178571428578  7.497596153846154 0.5682663690476183  7.7235576923076925 0.34095982142857184  C 7.949519230769232 0.11365327380952395  8.221153846153847 0  8.538461538461538 0  L 9 0  C 9.317307692307693 0  9.588942307692308 0.11365327380952395  9.814903846153847 0.34095982142857184  C 10.040865384615387 0.5682663690476183  10.153846153846153 0.8415178571428578  10.153846153846153 1.160714285714286  L 10.153846153846153 1.8571428571428577  L 11.076923076923077 1.8571428571428577  C 11.326923076923078 1.8571428571428577  11.543269230769232 1.9490327380952366  11.725961538461538 2.1328125  Z " stroke-width="0" stroke-dasharray="0" stroke="rgba(255, 255, 255, 0)" fill="none" transform="matrix(1 0 0 1 1096 1637 )" class="stroke" mask="url(#Clip25)" />
  </g>
</svg>