<?xml version="1.0" encoding="utf-8"?>
<svg version="1.1" xmlns:xlink="http://www.w3.org/1999/xlink" width="14px" height="14px" xmlns="http://www.w3.org/2000/svg">
  <defs>
    <pattern id="BGPattern" patternUnits="userSpaceOnUse" alignment="0 0" imageRepeat="None" />
    <mask fill="white" id="Clip26">
      <path d="M 3.486328125 0.9388020833333328  C 4.558810763888889 0.31293402777777657  5.730034722222222 0  7 0  C 8.269965277777779 0  9.441189236111112 0.31293402777777657  10.513671875 0.9388020833333328  C 11.58615451388889 1.5646701388888875  12.435329861111112 2.4138454861111107  13.061197916666668 3.486328125  C 13.68706597222222 4.5588107638888875  14 5.7300347222222205  14 7  C 14 8.269965277777779  13.68706597222222 9.441189236111109  13.061197916666668 10.513671875  C 12.435329861111112 11.58615451388889  11.58615451388889 12.43532986111111  10.513671875 13.061197916666668  C 9.441189236111112 13.687065972222223  8.269965277777779 14  7 14  C 5.730034722222222 14  4.558810763888889 13.687065972222223  3.486328125 13.061197916666668  C 2.413845486111111 12.43532986111111  1.564670138888889 11.58615451388889  0.9388020833333334 10.513671875  C 0.31293402777777773 9.441189236111109  0 8.269965277777779  0 7  C 0 5.7300347222222205  0.31293402777777773 4.5588107638888875  0.9388020833333334 3.486328125  C 1.564670138888889 2.4138454861111107  2.413845486111111 1.5646701388888875  3.486328125 0.9388020833333328  Z M 8.084635416666668 11.580078125  C 8.139322916666668 11.522352430555557  8.166666666666668 11.45095486111111  8.166666666666668 11.365885416666668  L 8.166666666666668 9.634114583333334  C 8.166666666666668 9.549045138888888  8.139322916666668 9.477647569444443  8.084635416666668 9.419921875  C 8.029947916666668 9.362196180555557  7.963107638888889 9.333333333333334  7.884114583333333 9.333333333333334  L 6.134114583333334 9.333333333333334  C 6.055121527777779 9.333333333333334  5.985243055555556 9.363715277777779  5.924479166666666 9.424479166666666  C 5.863715277777779 9.485243055555554  5.833333333333334 9.555121527777779  5.833333333333334 9.634114583333334  L 5.833333333333334 11.365885416666668  C 5.833333333333334 11.444878472222223  5.863715277777779 11.514756944444443  5.924479166666666 11.575520833333332  C 5.985243055555556 11.636284722222223  6.055121527777779 11.666666666666668  6.134114583333334 11.666666666666668  L 7.884114583333333 11.666666666666668  C 7.963107638888889 11.666666666666668  8.029947916666668 11.637803819444443  8.084635416666668 11.580078125  Z M 8.052734375 8.389973958333334  C 8.110460069444445 8.344401041666666  8.14236111111111 8.291232638888888  8.1484375 8.23046875  L 8.3125 2.5703125  C 8.312500000000002 2.497395833333333  8.282118055555557 2.442708333333333  8.221354166666668 2.40625  C 8.160590277777779 2.3576388888888875  8.08767361111111 2.333333333333333  8.002604166666668 2.333333333333333  L 5.997395833333334 2.333333333333333  C 5.91232638888889 2.333333333333333  5.839409722222222 2.3576388888888875  5.778645833333334 2.40625  C 5.717881944444445 2.442708333333333  5.6875 2.497395833333333  5.6875 2.5703125  L 5.842447916666666 8.23046875  C 5.842447916666666 8.291232638888888  5.872829861111112 8.344401041666666  5.93359375 8.389973958333334  C 5.99435763888889 8.435546875  6.067274305555556 8.458333333333334  6.15234375 8.458333333333334  L 7.838541666666667 8.458333333333334  C 7.923611111111111 8.458333333333334  7.995008680555556 8.435546875  8.052734375 8.389973958333334  Z " fill-rule="evenodd" />
    </mask>
  </defs>
  <g transform="matrix(1 0 0 1 -1069 -3060 )">
    <path d="M 3.486328125 0.9388020833333328  C 4.558810763888889 0.31293402777777657  5.730034722222222 0  7 0  C 8.269965277777779 0  9.441189236111112 0.31293402777777657  10.513671875 0.9388020833333328  C 11.58615451388889 1.5646701388888875  12.435329861111112 2.4138454861111107  13.061197916666668 3.486328125  C 13.68706597222222 4.5588107638888875  14 5.7300347222222205  14 7  C 14 8.269965277777779  13.68706597222222 9.441189236111109  13.061197916666668 10.513671875  C 12.435329861111112 11.58615451388889  11.58615451388889 12.43532986111111  10.513671875 13.061197916666668  C 9.441189236111112 13.687065972222223  8.269965277777779 14  7 14  C 5.730034722222222 14  4.558810763888889 13.687065972222223  3.486328125 13.061197916666668  C 2.413845486111111 12.43532986111111  1.564670138888889 11.58615451388889  0.9388020833333334 10.513671875  C 0.31293402777777773 9.441189236111109  0 8.269965277777779  0 7  C 0 5.7300347222222205  0.31293402777777773 4.5588107638888875  0.9388020833333334 3.486328125  C 1.564670138888889 2.4138454861111107  2.413845486111111 1.5646701388888875  3.486328125 0.9388020833333328  Z M 8.084635416666668 11.580078125  C 8.139322916666668 11.522352430555557  8.166666666666668 11.45095486111111  8.166666666666668 11.365885416666668  L 8.166666666666668 9.634114583333334  C 8.166666666666668 9.549045138888888  8.139322916666668 9.477647569444443  8.084635416666668 9.419921875  C 8.029947916666668 9.362196180555557  7.963107638888889 9.333333333333334  7.884114583333333 9.333333333333334  L 6.134114583333334 9.333333333333334  C 6.055121527777779 9.333333333333334  5.985243055555556 9.363715277777779  5.924479166666666 9.424479166666666  C 5.863715277777779 9.485243055555554  5.833333333333334 9.555121527777779  5.833333333333334 9.634114583333334  L 5.833333333333334 11.365885416666668  C 5.833333333333334 11.444878472222223  5.863715277777779 11.514756944444443  5.924479166666666 11.575520833333332  C 5.985243055555556 11.636284722222223  6.055121527777779 11.666666666666668  6.134114583333334 11.666666666666668  L 7.884114583333333 11.666666666666668  C 7.963107638888889 11.666666666666668  8.029947916666668 11.637803819444443  8.084635416666668 11.580078125  Z M 8.052734375 8.389973958333334  C 8.110460069444445 8.344401041666666  8.14236111111111 8.291232638888888  8.1484375 8.23046875  L 8.3125 2.5703125  C 8.312500000000002 2.497395833333333  8.282118055555557 2.442708333333333  8.221354166666668 2.40625  C 8.160590277777779 2.3576388888888875  8.08767361111111 2.333333333333333  8.002604166666668 2.333333333333333  L 5.997395833333334 2.333333333333333  C 5.91232638888889 2.333333333333333  5.839409722222222 2.3576388888888875  5.778645833333334 2.40625  C 5.717881944444445 2.442708333333333  5.6875 2.497395833333333  5.6875 2.5703125  L 5.842447916666666 8.23046875  C 5.842447916666666 8.291232638888888  5.872829861111112 8.344401041666666  5.93359375 8.389973958333334  C 5.99435763888889 8.435546875  6.067274305555556 8.458333333333334  6.15234375 8.458333333333334  L 7.838541666666667 8.458333333333334  C 7.923611111111111 8.458333333333334  7.995008680555556 8.435546875  8.052734375 8.389973958333334  Z " fill-rule="nonzero" fill="rgba(0, 0, 0, 1)" stroke="none" transform="matrix(1 0 0 1 1069 3060 )" class="fill" />
    <path d="M 3.486328125 0.9388020833333328  C 4.558810763888889 0.31293402777777657  5.730034722222222 0  7 0  C 8.269965277777779 0  9.441189236111112 0.31293402777777657  10.513671875 0.9388020833333328  C 11.58615451388889 1.5646701388888875  12.435329861111112 2.4138454861111107  13.061197916666668 3.486328125  C 13.68706597222222 4.5588107638888875  14 5.7300347222222205  14 7  C 14 8.269965277777779  13.68706597222222 9.441189236111109  13.061197916666668 10.513671875  C 12.435329861111112 11.58615451388889  11.58615451388889 12.43532986111111  10.513671875 13.061197916666668  C 9.441189236111112 13.687065972222223  8.269965277777779 14  7 14  C 5.730034722222222 14  4.558810763888889 13.687065972222223  3.486328125 13.061197916666668  C 2.413845486111111 12.43532986111111  1.564670138888889 11.58615451388889  0.9388020833333334 10.513671875  C 0.31293402777777773 9.441189236111109  0 8.269965277777779  0 7  C 0 5.7300347222222205  0.31293402777777773 4.5588107638888875  0.9388020833333334 3.486328125  C 1.564670138888889 2.4138454861111107  2.413845486111111 1.5646701388888875  3.486328125 0.9388020833333328  Z " stroke-width="0" stroke-dasharray="0" stroke="rgba(255, 255, 255, 0)" fill="none" transform="matrix(1 0 0 1 1069 3060 )" class="stroke" mask="url(#Clip26)" />
    <path d="M 8.084635416666668 11.580078125  C 8.139322916666668 11.522352430555557  8.166666666666668 11.45095486111111  8.166666666666668 11.365885416666668  L 8.166666666666668 9.634114583333334  C 8.166666666666668 9.549045138888888  8.139322916666668 9.477647569444443  8.084635416666668 9.419921875  C 8.029947916666668 9.362196180555557  7.963107638888889 9.333333333333334  7.884114583333333 9.333333333333334  L 6.134114583333334 9.333333333333334  C 6.055121527777779 9.333333333333334  5.985243055555556 9.363715277777779  5.924479166666666 9.424479166666666  C 5.863715277777779 9.485243055555554  5.833333333333334 9.555121527777779  5.833333333333334 9.634114583333334  L 5.833333333333334 11.365885416666668  C 5.833333333333334 11.444878472222223  5.863715277777779 11.514756944444443  5.924479166666666 11.575520833333332  C 5.985243055555556 11.636284722222223  6.055121527777779 11.666666666666668  6.134114583333334 11.666666666666668  L 7.884114583333333 11.666666666666668  C 7.963107638888889 11.666666666666668  8.029947916666668 11.637803819444443  8.084635416666668 11.580078125  Z " stroke-width="0" stroke-dasharray="0" stroke="rgba(255, 255, 255, 0)" fill="none" transform="matrix(1 0 0 1 1069 3060 )" class="stroke" mask="url(#Clip26)" />
    <path d="M 8.052734375 8.389973958333334  C 8.110460069444445 8.344401041666666  8.14236111111111 8.291232638888888  8.1484375 8.23046875  L 8.3125 2.5703125  C 8.312500000000002 2.497395833333333  8.282118055555557 2.442708333333333  8.221354166666668 2.40625  C 8.160590277777779 2.3576388888888875  8.08767361111111 2.333333333333333  8.002604166666668 2.333333333333333  L 5.997395833333334 2.333333333333333  C 5.91232638888889 2.333333333333333  5.839409722222222 2.3576388888888875  5.778645833333334 2.40625  C 5.717881944444445 2.442708333333333  5.6875 2.497395833333333  5.6875 2.5703125  L 5.842447916666666 8.23046875  C 5.842447916666666 8.291232638888888  5.872829861111112 8.344401041666666  5.93359375 8.389973958333334  C 5.99435763888889 8.435546875  6.067274305555556 8.458333333333334  6.15234375 8.458333333333334  L 7.838541666666667 8.458333333333334  C 7.923611111111111 8.458333333333334  7.995008680555556 8.435546875  8.052734375 8.389973958333334  Z " stroke-width="0" stroke-dasharray="0" stroke="rgba(255, 255, 255, 0)" fill="none" transform="matrix(1 0 0 1 1069 3060 )" class="stroke" mask="url(#Clip26)" />
  </g>
</svg>