<?xml version="1.0" encoding="utf-8"?>
<svg version="1.1" xmlns:xlink="http://www.w3.org/1999/xlink" width="375px" height="34px" xmlns="http://www.w3.org/2000/svg">
  <defs>
    <pattern id="BGPattern" patternUnits="userSpaceOnUse" alignment="0 0" imageRepeat="None" />
    <mask fill="white" id="Clip27">
      <path d="M 0 30  L 0 4  C 0 1.7599999999999998  1.7599999999999996 0  4 0  L 371 0  C 373.24 0  375 1.7599999999999998  375 4  L 375 30  C 375 32.24  373.24 34  371 34  L 4 34  C 1.7599999999999996 34  0 32.24  0 30  Z " fill-rule="evenodd" />
    </mask>
  </defs>
  <g transform="matrix(1 0 0 1 -2378 -614 )">
    <path d="M 0 30  L 0 4  C 0 1.7599999999999998  1.7599999999999996 0  4 0  L 371 0  C 373.24 0  375 1.7599999999999998  375 4  L 375 30  C 375 32.24  373.24 34  371 34  L 4 34  C 1.7599999999999996 34  0 32.24  0 30  Z " fill-rule="nonzero" fill="rgba(255, 51, 153, 0.09803921568627451)" stroke="none" transform="matrix(1 0 0 1 2378 614 )" class="fill" />
    <path d="M 0 30  L 0 4  C 0 1.7599999999999998  1.7599999999999996 0  4 0  L 371 0  C 373.24 0  375 1.7599999999999998  375 4  L 375 30  C 375 32.24  373.24 34  371 34  L 4 34  C 1.7599999999999996 34  0 32.24  0 30  Z " stroke-width="2" stroke-dasharray="9,4" stroke="rgba(255, 51, 153, 1)" fill="none" transform="matrix(1 0 0 1 2378 614 )" class="stroke" mask="url(#Clip27)" />
  </g>
</svg>