<?xml version="1.0" encoding="utf-8"?>
<svg version="1.1" xmlns:xlink="http://www.w3.org/1999/xlink" width="63px" height="34px" xmlns="http://www.w3.org/2000/svg">
  <defs>
    <pattern id="BGPattern" patternUnits="userSpaceOnUse" alignment="0 0" imageRepeat="None" />
    <mask fill="white" id="Clip28">
      <path d="M 0 30  L 0 4  C 0 1.7599999999999998  1.7599999999999998 0  4 0  L 59 0  C 61.24 0  63 1.7599999999999998  63 4  L 63 30  C 63 32.24  61.24 34  59 34  L 4 34  C 1.7599999999999998 34  0 32.24  0 30  Z " fill-rule="evenodd" />
    </mask>
  </defs>
  <g transform="matrix(1 0 0 1 -2380 -529 )">
    <path d="M 0 30  L 0 4  C 0 1.7599999999999998  1.7599999999999998 0  4 0  L 59 0  C 61.24 0  63 1.7599999999999998  63 4  L 63 30  C 63 32.24  61.24 34  59 34  L 4 34  C 1.7599999999999998 34  0 32.24  0 30  Z " fill-rule="nonzero" fill="rgba(255, 51, 153, 0.09803921568627451)" stroke="none" transform="matrix(1 0 0 1 2380 529 )" class="fill" />
    <path d="M 0 30  L 0 4  C 0 1.7599999999999998  1.7599999999999998 0  4 0  L 59 0  C 61.24 0  63 1.7599999999999998  63 4  L 63 30  C 63 32.24  61.24 34  59 34  L 4 34  C 1.7599999999999998 34  0 32.24  0 30  Z " stroke-width="2" stroke-dasharray="9,4" stroke="rgba(255, 51, 153, 1)" fill="none" transform="matrix(1 0 0 1 2380 529 )" class="stroke" mask="url(#Clip28)" />
  </g>
</svg>