<?xml version="1.0" encoding="utf-8"?>
<svg version="1.1" xmlns:xlink="http://www.w3.org/1999/xlink" width="7px" height="5px" xmlns="http://www.w3.org/2000/svg">
  <defs>
    <pattern id="BGPattern" patternUnits="userSpaceOnUse" alignment="0 0" imageRepeat="None" />
    <mask fill="white" id="Clip19">
      <path d="M 6.873548387096774 0.6902356902356904  C 6.957849462365592 0.7687991021324353  7.000000000000002 0.8641975308641975  7 0.9764309764309764  C 7.000000000000002 1.0886644219977548  6.957849462365592 1.184062850729517  6.873548387096774 1.2626262626262625  L 3.603870967741936 4.30976430976431  L 2.9896774193548388 4.882154882154882  C 2.905376344086022 4.9607182940516275  2.8030107526881727 5  2.6825806451612904 5  C 2.5621505376344085 5  2.4597849462365593 4.9607182940516275  2.375483870967742 4.882154882154882  L 1.761290322580645 4.30976430976431  L 0.12645161290322582 2.7861952861952863  C 0.042150537634408645 2.7076318742985404  0 2.6122334455667784  0 2.5  C 0 2.387766554433221  0.042150537634408645 2.2923681257014588  0.12645161290322582 2.213804713804714  L 0.7406451612903225 1.6414141414141414  C 0.8249462365591398 1.562850729517396  0.9273118279569894 1.523569023569023  1.047741935483871 1.5235690235690236  C 1.168172043010753 1.523569023569023  1.2705376344086021 1.562850729517396  1.3548387096774193 1.6414141414141414  L 2.6825806451612904 2.882996632996633  L 5.64516129032258 0.11784511784511786  C 5.729462365591399 0.039281705948372436  5.831827956989248 0  5.952258064516129 0  C 6.072688172043011 0  6.175053763440861 0.039281705948372436  6.259354838709677 0.11784511784511786  L 6.873548387096774 0.6902356902356904  Z " fill-rule="evenodd" />
    </mask>
  </defs>
  <g transform="matrix(1 0 0 1 -1153 -550 )">
    <path d="M 6.873548387096774 0.6902356902356904  C 6.957849462365592 0.7687991021324353  7.000000000000002 0.8641975308641975  7 0.9764309764309764  C 7.000000000000002 1.0886644219977548  6.957849462365592 1.184062850729517  6.873548387096774 1.2626262626262625  L 3.603870967741936 4.30976430976431  L 2.9896774193548388 4.882154882154882  C 2.905376344086022 4.9607182940516275  2.8030107526881727 5  2.6825806451612904 5  C 2.5621505376344085 5  2.4597849462365593 4.9607182940516275  2.375483870967742 4.882154882154882  L 1.761290322580645 4.30976430976431  L 0.12645161290322582 2.7861952861952863  C 0.042150537634408645 2.7076318742985404  0 2.6122334455667784  0 2.5  C 0 2.387766554433221  0.042150537634408645 2.2923681257014588  0.12645161290322582 2.213804713804714  L 0.7406451612903225 1.6414141414141414  C 0.8249462365591398 1.562850729517396  0.9273118279569894 1.523569023569023  1.047741935483871 1.5235690235690236  C 1.168172043010753 1.523569023569023  1.2705376344086021 1.562850729517396  1.3548387096774193 1.6414141414141414  L 2.6825806451612904 2.882996632996633  L 5.64516129032258 0.11784511784511786  C 5.729462365591399 0.039281705948372436  5.831827956989248 0  5.952258064516129 0  C 6.072688172043011 0  6.175053763440861 0.039281705948372436  6.259354838709677 0.11784511784511786  L 6.873548387096774 0.6902356902356904  Z " fill-rule="nonzero" fill="rgba(255, 255, 255, 1)" stroke="none" transform="matrix(1 0 0 1 1153 550 )" class="fill" />
    <path d="M 6.873548387096774 0.6902356902356904  C 6.957849462365592 0.7687991021324353  7.000000000000002 0.8641975308641975  7 0.9764309764309764  C 7.000000000000002 1.0886644219977548  6.957849462365592 1.184062850729517  6.873548387096774 1.2626262626262625  L 3.603870967741936 4.30976430976431  L 2.9896774193548388 4.882154882154882  C 2.905376344086022 4.9607182940516275  2.8030107526881727 5  2.6825806451612904 5  C 2.5621505376344085 5  2.4597849462365593 4.9607182940516275  2.375483870967742 4.882154882154882  L 1.761290322580645 4.30976430976431  L 0.12645161290322582 2.7861952861952863  C 0.042150537634408645 2.7076318742985404  0 2.6122334455667784  0 2.5  C 0 2.387766554433221  0.042150537634408645 2.2923681257014588  0.12645161290322582 2.213804713804714  L 0.7406451612903225 1.6414141414141414  C 0.8249462365591398 1.562850729517396  0.9273118279569894 1.523569023569023  1.047741935483871 1.5235690235690236  C 1.168172043010753 1.523569023569023  1.2705376344086021 1.562850729517396  1.3548387096774193 1.6414141414141414  L 2.6825806451612904 2.882996632996633  L 5.64516129032258 0.11784511784511786  C 5.729462365591399 0.039281705948372436  5.831827956989248 0  5.952258064516129 0  C 6.072688172043011 0  6.175053763440861 0.039281705948372436  6.259354838709677 0.11784511784511786  L 6.873548387096774 0.6902356902356904  Z " stroke-width="0" stroke-dasharray="0" stroke="rgba(255, 255, 255, 0)" fill="none" transform="matrix(1 0 0 1 1153 550 )" class="stroke" mask="url(#Clip19)" />
  </g>
</svg>