<?xml version="1.0" encoding="utf-8"?>
<svg version="1.1" xmlns:xlink="http://www.w3.org/1999/xlink" width="11px" height="8px" xmlns="http://www.w3.org/2000/svg">
  <defs>
    <pattern id="BGPattern" patternUnits="userSpaceOnUse" alignment="0 0" imageRepeat="None" />
    <mask fill="white" id="Clip21">
      <path d="M 10.801290322580645 1.1043771043771047  C 10.933763440860217 1.2300785634118965  11.000000000000002 1.382716049382716  11 1.5622895622895623  C 11.000000000000002 1.7418630751964077  10.933763440860217 1.8945005611672272  10.801290322580645 2.02020202020202  L 5.663225806451614 6.895622895622895  L 4.698064516129032 7.811447811447811  C 4.565591397849463 7.937149270482604  4.404731182795699 8  4.215483870967742 8  C 4.026236559139785 8  3.865376344086022 7.937149270482604  3.7329032258064516 7.811447811447811  L 2.767741935483871 6.895622895622895  L 0.19870967741935486 4.4579124579124585  C 0.06623655913978502 4.332210998877665  0 4.179573512906845  0 4  C 0 3.8204264870931537  0.06623655913978502 3.667789001122334  0.19870967741935486 3.5420875420875424  L 1.1638709677419354 2.6262626262626263  C 1.2963440860215054 2.5005611672278336  1.457204301075269 2.437710437710437  1.6464516129032258 2.4377104377104377  C 1.8356989247311832 2.437710437710437  1.9965591397849463 2.5005611672278336  2.129032258064516 2.6262626262626263  L 4.215483870967742 4.6127946127946124  L 8.870967741935484 0.18855218855218858  C 9.003440860215054 0.0628507295173959  9.164301075268819 0  9.353548387096774 0  C 9.542795698924731 0  9.703655913978496 0.0628507295173959  9.836129032258064 0.18855218855218858  L 10.801290322580645 1.1043771043771047  Z " fill-rule="evenodd" />
    </mask>
  </defs>
  <g transform="matrix(1 0 0 1 -1152 -731 )">
    <path d="M 10.801290322580645 1.1043771043771047  C 10.933763440860217 1.2300785634118965  11.000000000000002 1.382716049382716  11 1.5622895622895623  C 11.000000000000002 1.7418630751964077  10.933763440860217 1.8945005611672272  10.801290322580645 2.02020202020202  L 5.663225806451614 6.895622895622895  L 4.698064516129032 7.811447811447811  C 4.565591397849463 7.937149270482604  4.404731182795699 8  4.215483870967742 8  C 4.026236559139785 8  3.865376344086022 7.937149270482604  3.7329032258064516 7.811447811447811  L 2.767741935483871 6.895622895622895  L 0.19870967741935486 4.4579124579124585  C 0.06623655913978502 4.332210998877665  0 4.179573512906845  0 4  C 0 3.8204264870931537  0.06623655913978502 3.667789001122334  0.19870967741935486 3.5420875420875424  L 1.1638709677419354 2.6262626262626263  C 1.2963440860215054 2.5005611672278336  1.457204301075269 2.437710437710437  1.6464516129032258 2.4377104377104377  C 1.8356989247311832 2.437710437710437  1.9965591397849463 2.5005611672278336  2.129032258064516 2.6262626262626263  L 4.215483870967742 4.6127946127946124  L 8.870967741935484 0.18855218855218858  C 9.003440860215054 0.0628507295173959  9.164301075268819 0  9.353548387096774 0  C 9.542795698924731 0  9.703655913978496 0.0628507295173959  9.836129032258064 0.18855218855218858  L 10.801290322580645 1.1043771043771047  Z " fill-rule="nonzero" fill="rgba(255, 255, 255, 1)" stroke="none" transform="matrix(1 0 0 1 1152 731 )" class="fill" />
    <path d="M 10.801290322580645 1.1043771043771047  C 10.933763440860217 1.2300785634118965  11.000000000000002 1.382716049382716  11 1.5622895622895623  C 11.000000000000002 1.7418630751964077  10.933763440860217 1.8945005611672272  10.801290322580645 2.02020202020202  L 5.663225806451614 6.895622895622895  L 4.698064516129032 7.811447811447811  C 4.565591397849463 7.937149270482604  4.404731182795699 8  4.215483870967742 8  C 4.026236559139785 8  3.865376344086022 7.937149270482604  3.7329032258064516 7.811447811447811  L 2.767741935483871 6.895622895622895  L 0.19870967741935486 4.4579124579124585  C 0.06623655913978502 4.332210998877665  0 4.179573512906845  0 4  C 0 3.8204264870931537  0.06623655913978502 3.667789001122334  0.19870967741935486 3.5420875420875424  L 1.1638709677419354 2.6262626262626263  C 1.2963440860215054 2.5005611672278336  1.457204301075269 2.437710437710437  1.6464516129032258 2.4377104377104377  C 1.8356989247311832 2.437710437710437  1.9965591397849463 2.5005611672278336  2.129032258064516 2.6262626262626263  L 4.215483870967742 4.6127946127946124  L 8.870967741935484 0.18855218855218858  C 9.003440860215054 0.0628507295173959  9.164301075268819 0  9.353548387096774 0  C 9.542795698924731 0  9.703655913978496 0.0628507295173959  9.836129032258064 0.18855218855218858  L 10.801290322580645 1.1043771043771047  Z " stroke-width="0" stroke-dasharray="0" stroke="rgba(255, 255, 255, 0)" fill="none" transform="matrix(1 0 0 1 1152 731 )" class="stroke" mask="url(#Clip21)" />
  </g>
</svg>