<?xml version="1.0" encoding="utf-8"?>
<svg version="1.1" xmlns:xlink="http://www.w3.org/1999/xlink" width="8px" height="6px" xmlns="http://www.w3.org/2000/svg">
  <defs>
    <pattern id="BGPattern" patternUnits="userSpaceOnUse" alignment="0 0" imageRepeat="None" />
    <mask fill="white" id="Clip22">
      <path d="M 7.855483870967742 0.8282828282828285  C 7.9518279569892485 0.9225589225589224  8.000000000000002 1.037037037037037  8 1.1717171717171717  C 8.000000000000002 1.3063973063973058  7.9518279569892485 1.4208754208754204  7.855483870967742 1.515151515151515  L 4.118709677419355 5.171717171717171  L 3.4167741935483873 5.858585858585858  C 3.320430107526882 5.952861952861953  3.2034408602150544 6  3.0658064516129033 6  C 2.9281720430107527 6  2.811182795698925 5.952861952861953  2.7148387096774194 5.858585858585858  L 2.0129032258064514 5.171717171717171  L 0.14451612903225808 3.343434343434344  C 0.04817204301075274 3.2491582491582487  0 3.134680134680134  0 3  C 0 2.865319865319865  0.04817204301075274 2.750841750841751  0.14451612903225808 2.6565656565656566  L 0.8464516129032258 1.9696969696969697  C 0.9427956989247313 1.8754208754208752  1.0597849462365594 1.8282828282828276  1.1974193548387098 1.8282828282828283  C 1.3350537634408606 1.8282828282828276  1.4520430107526883 1.8754208754208752  1.5483870967741935 1.9696969696969697  L 3.0658064516129033 3.4595959595959593  L 6.451612903225806 0.14141414141414144  C 6.547956989247313 0.047138047138046923  6.664946236559141 0  6.8025806451612905 0  C 6.940215053763441 0  7.057204301075269 0.047138047138046923  7.153548387096774 0.14141414141414144  L 7.855483870967742 0.8282828282828285  Z " fill-rule="evenodd" />
    </mask>
  </defs>
  <g transform="matrix(1 0 0 1 -2736 -935 )">
    <path d="M 7.855483870967742 0.8282828282828285  C 7.9518279569892485 0.9225589225589224  8.000000000000002 1.037037037037037  8 1.1717171717171717  C 8.000000000000002 1.3063973063973058  7.9518279569892485 1.4208754208754204  7.855483870967742 1.515151515151515  L 4.118709677419355 5.171717171717171  L 3.4167741935483873 5.858585858585858  C 3.320430107526882 5.952861952861953  3.2034408602150544 6  3.0658064516129033 6  C 2.9281720430107527 6  2.811182795698925 5.952861952861953  2.7148387096774194 5.858585858585858  L 2.0129032258064514 5.171717171717171  L 0.14451612903225808 3.343434343434344  C 0.04817204301075274 3.2491582491582487  0 3.134680134680134  0 3  C 0 2.865319865319865  0.04817204301075274 2.750841750841751  0.14451612903225808 2.6565656565656566  L 0.8464516129032258 1.9696969696969697  C 0.9427956989247313 1.8754208754208752  1.0597849462365594 1.8282828282828276  1.1974193548387098 1.8282828282828283  C 1.3350537634408606 1.8282828282828276  1.4520430107526883 1.8754208754208752  1.5483870967741935 1.9696969696969697  L 3.0658064516129033 3.4595959595959593  L 6.451612903225806 0.14141414141414144  C 6.547956989247313 0.047138047138046923  6.664946236559141 0  6.8025806451612905 0  C 6.940215053763441 0  7.057204301075269 0.047138047138046923  7.153548387096774 0.14141414141414144  L 7.855483870967742 0.8282828282828285  Z " fill-rule="nonzero" fill="rgba(255, 255, 255, 1)" stroke="none" transform="matrix(1 0 0 1 2736 935 )" class="fill" />
    <path d="M 7.855483870967742 0.8282828282828285  C 7.9518279569892485 0.9225589225589224  8.000000000000002 1.037037037037037  8 1.1717171717171717  C 8.000000000000002 1.3063973063973058  7.9518279569892485 1.4208754208754204  7.855483870967742 1.515151515151515  L 4.118709677419355 5.171717171717171  L 3.4167741935483873 5.858585858585858  C 3.320430107526882 5.952861952861953  3.2034408602150544 6  3.0658064516129033 6  C 2.9281720430107527 6  2.811182795698925 5.952861952861953  2.7148387096774194 5.858585858585858  L 2.0129032258064514 5.171717171717171  L 0.14451612903225808 3.343434343434344  C 0.04817204301075274 3.2491582491582487  0 3.134680134680134  0 3  C 0 2.865319865319865  0.04817204301075274 2.750841750841751  0.14451612903225808 2.6565656565656566  L 0.8464516129032258 1.9696969696969697  C 0.9427956989247313 1.8754208754208752  1.0597849462365594 1.8282828282828276  1.1974193548387098 1.8282828282828283  C 1.3350537634408606 1.8282828282828276  1.4520430107526883 1.8754208754208752  1.5483870967741935 1.9696969696969697  L 3.0658064516129033 3.4595959595959593  L 6.451612903225806 0.14141414141414144  C 6.547956989247313 0.047138047138046923  6.664946236559141 0  6.8025806451612905 0  C 6.940215053763441 0  7.057204301075269 0.047138047138046923  7.153548387096774 0.14141414141414144  L 7.855483870967742 0.8282828282828285  Z " stroke-width="0" stroke-dasharray="0" stroke="rgba(255, 255, 255, 0)" fill="none" transform="matrix(1 0 0 1 2736 935 )" class="stroke" mask="url(#Clip22)" />
  </g>
</svg>