<?xml version="1.0" encoding="utf-8"?>
<svg version="1.1" xmlns:xlink="http://www.w3.org/1999/xlink" width="14px" height="14px" xmlns="http://www.w3.org/2000/svg">
  <defs>
    <pattern id="BGPattern" patternUnits="userSpaceOnUse" alignment="0 0" imageRepeat="None" />
    <mask fill="white" id="Clip24">
      <path d="M 11.5390625 5.93359375  C 11.6484375 5.82421875  11.703125 5.6875  11.703125 5.5234375  C 11.703125 5.353298611111111  11.6484375 5.213541666666667  11.5390625 5.104166666666667  L 10.709635416666668 4.283854166666667  C 10.59418402777778 4.168402777777777  10.45746527777778 4.110677083333333  10.299479166666668 4.110677083333333  C 10.141493055555557 4.110677083333333  10.004774305555557 4.168402777777777  9.889322916666668 4.283854166666667  L 6.170572916666666 7.993489583333334  L 4.110677083333334 5.93359375  C 3.9952256944444446 5.818142361111111  3.8585069444444446 5.760416666666667  3.7005208333333335 5.760416666666667  C 3.5425347222222228 5.760416666666667  3.4058159722222223 5.818142361111111  3.290364583333333 5.93359375  L 2.4609375 6.75390625  C 2.3515625 6.86328125  2.2968750000000004 7.003038194444444  2.296875 7.173177083333334  C 2.2968750000000004 7.337239583333334  2.3515625 7.473958333333334  2.4609375 7.583333333333334  L 5.760416666666666 10.8828125  C 5.875868055555556 10.998263888888888  6.012586805555556 11.055989583333332  6.170572916666666 11.055989583333332  C 6.334635416666666 11.055989583333332  6.474392361111112 10.998263888888888  6.58984375 10.8828125  L 11.5390625 5.93359375  Z M 13.061197916666668 3.486328125  C 13.68706597222222 4.5588107638888875  14 5.7300347222222205  14 7  C 14 8.269965277777779  13.68706597222222 9.441189236111109  13.061197916666668 10.513671875  C 12.435329861111112 11.58615451388889  11.58615451388889 12.43532986111111  10.513671875 13.061197916666668  C 9.441189236111112 13.687065972222223  8.269965277777779 14  7 14  C 5.730034722222222 14  4.558810763888889 13.687065972222223  3.486328125 13.061197916666668  C 2.413845486111111 12.43532986111111  1.564670138888889 11.58615451388889  0.9388020833333334 10.513671875  C 0.31293402777777773 9.441189236111109  0 8.269965277777779  0 7  C 0 5.7300347222222205  0.31293402777777773 4.5588107638888875  0.9388020833333334 3.486328125  C 1.564670138888889 2.4138454861111107  2.413845486111111 1.5646701388888875  3.486328125 0.9388020833333328  C 4.558810763888889 0.31293402777777657  5.730034722222222 0  7 0  C 8.269965277777779 0  9.441189236111112 0.31293402777777657  10.513671875 0.9388020833333328  C 11.58615451388889 1.5646701388888875  12.435329861111112 2.4138454861111107  13.061197916666668 3.486328125  Z " fill-rule="evenodd" />
    </mask>
  </defs>
  <g transform="matrix(1 0 0 1 -2406 -4299 )">
    <path d="M 11.5390625 5.93359375  C 11.6484375 5.82421875  11.703125 5.6875  11.703125 5.5234375  C 11.703125 5.353298611111111  11.6484375 5.213541666666667  11.5390625 5.104166666666667  L 10.709635416666668 4.283854166666667  C 10.59418402777778 4.168402777777777  10.45746527777778 4.110677083333333  10.299479166666668 4.110677083333333  C 10.141493055555557 4.110677083333333  10.004774305555557 4.168402777777777  9.889322916666668 4.283854166666667  L 6.170572916666666 7.993489583333334  L 4.110677083333334 5.93359375  C 3.9952256944444446 5.818142361111111  3.8585069444444446 5.760416666666667  3.7005208333333335 5.760416666666667  C 3.5425347222222228 5.760416666666667  3.4058159722222223 5.818142361111111  3.290364583333333 5.93359375  L 2.4609375 6.75390625  C 2.3515625 6.86328125  2.2968750000000004 7.003038194444444  2.296875 7.173177083333334  C 2.2968750000000004 7.337239583333334  2.3515625 7.473958333333334  2.4609375 7.583333333333334  L 5.760416666666666 10.8828125  C 5.875868055555556 10.998263888888888  6.012586805555556 11.055989583333332  6.170572916666666 11.055989583333332  C 6.334635416666666 11.055989583333332  6.474392361111112 10.998263888888888  6.58984375 10.8828125  L 11.5390625 5.93359375  Z M 13.061197916666668 3.486328125  C 13.68706597222222 4.5588107638888875  14 5.7300347222222205  14 7  C 14 8.269965277777779  13.68706597222222 9.441189236111109  13.061197916666668 10.513671875  C 12.435329861111112 11.58615451388889  11.58615451388889 12.43532986111111  10.513671875 13.061197916666668  C 9.441189236111112 13.687065972222223  8.269965277777779 14  7 14  C 5.730034722222222 14  4.558810763888889 13.687065972222223  3.486328125 13.061197916666668  C 2.413845486111111 12.43532986111111  1.564670138888889 11.58615451388889  0.9388020833333334 10.513671875  C 0.31293402777777773 9.441189236111109  0 8.269965277777779  0 7  C 0 5.7300347222222205  0.31293402777777773 4.5588107638888875  0.9388020833333334 3.486328125  C 1.564670138888889 2.4138454861111107  2.413845486111111 1.5646701388888875  3.486328125 0.9388020833333328  C 4.558810763888889 0.31293402777777657  5.730034722222222 0  7 0  C 8.269965277777779 0  9.441189236111112 0.31293402777777657  10.513671875 0.9388020833333328  C 11.58615451388889 1.5646701388888875  12.435329861111112 2.4138454861111107  13.061197916666668 3.486328125  Z " fill-rule="nonzero" fill="rgba(0, 0, 0, 1)" stroke="none" transform="matrix(1 0 0 1 2406 4299 )" class="fill" />
    <path d="M 11.5390625 5.93359375  C 11.6484375 5.82421875  11.703125 5.6875  11.703125 5.5234375  C 11.703125 5.353298611111111  11.6484375 5.213541666666667  11.5390625 5.104166666666667  L 10.709635416666668 4.283854166666667  C 10.59418402777778 4.168402777777777  10.45746527777778 4.110677083333333  10.299479166666668 4.110677083333333  C 10.141493055555557 4.110677083333333  10.004774305555557 4.168402777777777  9.889322916666668 4.283854166666667  L 6.170572916666666 7.993489583333334  L 4.110677083333334 5.93359375  C 3.9952256944444446 5.818142361111111  3.8585069444444446 5.760416666666667  3.7005208333333335 5.760416666666667  C 3.5425347222222228 5.760416666666667  3.4058159722222223 5.818142361111111  3.290364583333333 5.93359375  L 2.4609375 6.75390625  C 2.3515625 6.86328125  2.2968750000000004 7.003038194444444  2.296875 7.173177083333334  C 2.2968750000000004 7.337239583333334  2.3515625 7.473958333333334  2.4609375 7.583333333333334  L 5.760416666666666 10.8828125  C 5.875868055555556 10.998263888888888  6.012586805555556 11.055989583333332  6.170572916666666 11.055989583333332  C 6.334635416666666 11.055989583333332  6.474392361111112 10.998263888888888  6.58984375 10.8828125  L 11.5390625 5.93359375  Z " stroke-width="0" stroke-dasharray="0" stroke="rgba(255, 255, 255, 0)" fill="none" transform="matrix(1 0 0 1 2406 4299 )" class="stroke" mask="url(#Clip24)" />
    <path d="M 13.061197916666668 3.486328125  C 13.68706597222222 4.5588107638888875  14 5.7300347222222205  14 7  C 14 8.269965277777779  13.68706597222222 9.441189236111109  13.061197916666668 10.513671875  C 12.435329861111112 11.58615451388889  11.58615451388889 12.43532986111111  10.513671875 13.061197916666668  C 9.441189236111112 13.687065972222223  8.269965277777779 14  7 14  C 5.730034722222222 14  4.558810763888889 13.687065972222223  3.486328125 13.061197916666668  C 2.413845486111111 12.43532986111111  1.564670138888889 11.58615451388889  0.9388020833333334 10.513671875  C 0.31293402777777773 9.441189236111109  0 8.269965277777779  0 7  C 0 5.7300347222222205  0.31293402777777773 4.5588107638888875  0.9388020833333334 3.486328125  C 1.564670138888889 2.4138454861111107  2.413845486111111 1.5646701388888875  3.486328125 0.9388020833333328  C 4.558810763888889 0.31293402777777657  5.730034722222222 0  7 0  C 8.269965277777779 0  9.441189236111112 0.31293402777777657  10.513671875 0.9388020833333328  C 11.58615451388889 1.5646701388888875  12.435329861111112 2.4138454861111107  13.061197916666668 3.486328125  Z " stroke-width="0" stroke-dasharray="0" stroke="rgba(255, 255, 255, 0)" fill="none" transform="matrix(1 0 0 1 2406 4299 )" class="stroke" mask="url(#Clip24)" />
  </g>
</svg>